<svg xmlns="http://www.w3.org/2000/svg" xmlns:xlink="http://www.w3.org/1999/xlink" width="574.510742" height="441.773438" viewBox="0 0 574.511 441.773" fill="none">
    <desc>
        Created with Pixso.
        </desc>
    <defs/>
    <g opacity="0.350000">
        <path id="Vector" d="M134.37 132.31L124.75 129.69L116.56 122.01L104.65 122.92L92.66 129.84L102.39 135.5L110.84 136.6L119.64 141.56L127.83 141.32L138.35 143.19L134.37 132.31Z" fill="#0C3461" fill-opacity="1.000000" fill-rule="nonzero"/>
        </g>
    <path id="Vector" d="M102.9 112.76L102.96 133.82L96.13 129.85L96.08 108.79L102.9 112.76Z" fill="#F89D1F" fill-opacity="1.000000" fill-rule="nonzero"/>
    <path id="Vector" d="M111.35 113.85L111.41 134.92L102.96 133.81L102.9 112.75L111.35 113.85Z" fill="#F9B142" fill-opacity="1.000000" fill-rule="nonzero"/>
    <path id="Vector" d="M120.02 118.75L120.07 139.81L111.4 134.92L111.35 113.86L120.02 118.75Z" fill="#F89D1F" fill-opacity="1.000000" fill-rule="nonzero"/>
    <path id="Vector" d="M127.9 118.53L127.95 139.59L120.07 139.83L120.01 118.77L127.9 118.53Z" fill="#F9B142" fill-opacity="1.000000" fill-rule="nonzero"/>
    <path id="Vector" d="M135.62 119.9L135.67 140.96L127.95 139.59L127.9 118.53L135.62 119.9Z" fill="#F89D1F" fill-opacity="1.000000" fill-rule="nonzero"/>
    <path id="Vector" d="M135.62 119.87L127.9 118.5L120.02 118.73L111.35 113.84L102.9 112.74L96.08 108.77L105.12 103.55L115.88 102.73L123.81 110.18L132.99 112.68L135.62 119.87Z" fill="#FBC977" fill-opacity="1.000000" fill-rule="nonzero"/>
    <g opacity="0.350000">
        <path id="Vector" d="M64.84 344.31C64.55 344.14 49.12 335.25 49.12 335.25L27.08 348.06L46.17 359.07L68.2 346.26L64.84 344.31Z" fill="#0C3461" fill-opacity="1.000000" fill-rule="nonzero"/>
        </g>
    <path id="Vector" d="M46.19 348.84L63.73 338.65L63.71 346.26L46.16 356.45L46.19 348.84Z" fill="#F9B142" fill-opacity="1.000000" fill-rule="nonzero"/>
    <path id="Vector" d="M43.04 341.26L60.58 331.07L63.73 338.64L46.19 348.84L43.04 341.26Z" fill="#FBC977" fill-opacity="1.000000" fill-rule="nonzero"/>
    <path id="Vector" d="M42.94 331.67L60.49 321.48L60.58 331.06L43.04 341.26L42.94 331.67Z" fill="#F9B142" fill-opacity="1.000000" fill-rule="nonzero"/>
    <path id="Vector" d="M38.94 325.23L56.49 315.03L60.48 321.49L42.94 331.69L38.94 325.23Z" fill="#FBC977" fill-opacity="1.000000" fill-rule="nonzero"/>
    <path id="Vector" d="M36.37 318.12L53.91 307.92L56.49 315.03L38.95 325.22L36.37 318.12Z" fill="#F9B142" fill-opacity="1.000000" fill-rule="nonzero"/>
    <path id="Vector" d="M36.37 318.1L38.94 325.21L42.94 331.67L43.04 341.26L46.19 348.84L46.16 356.44L37.45 351.41L31.58 342.84L33.97 332.63L31.63 323.77L36.37 318.1Z" fill="#F89D1F" fill-opacity="1.000000" fill-rule="nonzero"/>
    <g opacity="0.350000">
        <path id="Vector" d="M15.63 249.1L0 258.18L15.77 267.29L31.4 258.2L15.63 249.1Z" fill="#0C3461" fill-opacity="1.000000" fill-rule="nonzero"/>
        </g>
    <path id="Vector" d="M15.79 257.43L15.76 265.94L2.36 258.2L2.38 249.69L15.79 257.43Z" fill="#F89D1F" fill-opacity="1.000000" fill-rule="nonzero"/>
    <path id="Vector" d="M2.38 249.67L15.66 241.96L29.07 249.69L15.79 257.41L2.38 249.67Z" fill="#FBC977" fill-opacity="1.000000" fill-rule="nonzero"/>
    <path id="Vector" d="M29.07 249.69L29.04 258.2L15.76 265.92L15.79 257.41L29.07 249.69Z" fill="#F9B142" fill-opacity="1.000000" fill-rule="nonzero"/>
    <g opacity="0.350000">
        <path id="Vector" d="M174.38 396.83L158.74 405.92L174.52 415.02L190.15 405.93L174.38 396.83Z" fill="#0C3461" fill-opacity="1.000000" fill-rule="nonzero"/>
        </g>
    <path id="Vector" d="M174.54 405.14L174.51 413.65L161.11 405.91L161.13 397.4L174.54 405.14Z" fill="#F89D1F" fill-opacity="1.000000" fill-rule="nonzero"/>
    <path id="Vector" d="M161.13 397.4L174.41 389.69L187.81 397.43L174.54 405.14L161.13 397.4Z" fill="#FBC977" fill-opacity="1.000000" fill-rule="nonzero"/>
    <path id="Vector" d="M187.81 397.42L187.79 405.93L174.51 413.65L174.54 405.14L187.81 397.42Z" fill="#F9B142" fill-opacity="1.000000" fill-rule="nonzero"/>
    <g opacity="0.350000">
        <path id="Vector" d="M65.9 175.1L36.95 180.69L49.72 184.91L50.35 195.4L75.2 196.01L76.03 179.62L65.9 175.1Z" fill="#0C3461" fill-opacity="1.000000" fill-rule="nonzero"/>
        </g>
    <path id="Vector" d="M74.92 156.03L73.91 180.9L73.26 193.91L74.26 169.03L74.92 156.03Z" fill="#717171" fill-opacity="1.000000" fill-rule="nonzero"/>
    <path id="Vector" d="M52.68 158.53L51.68 183.39L45.05 181.21L46.06 156.34L52.68 158.53Z" fill="#F9B142" fill-opacity="1.000000" fill-rule="nonzero"/>
    <path id="Vector" d="M53.28 168.53L52.28 193.39L51.68 183.39L52.68 158.52L53.28 168.53Z" fill="#F89D1F" fill-opacity="1.000000" fill-rule="nonzero"/>
    <path id="Vector" d="M74.26 169.04L73.26 193.91L52.28 193.39L53.29 168.53L74.26 169.04Z" fill="#F9B142" fill-opacity="1.000000" fill-rule="nonzero"/>
    <path id="Vector" d="M74.26 169.03L53.28 168.52L52.68 158.52L46.06 156.34L66.66 152.35L74.91 156.03L74.26 169.03Z" fill="#FBC977" fill-opacity="1.000000" fill-rule="nonzero"/>
    <g opacity="0.350000">
        <path id="Vector" d="M311.85 428.24L307.09 429.02L303.93 427.19L298.1 426.94L294.73 424.16L289.47 424.22L283.81 421.62L276.43 425.9L303.92 441.77L319.55 432.68L311.85 428.24Z" fill="#0C3461" fill-opacity="1.000000" fill-rule="nonzero"/>
        </g>
    <path id="Vector" d="M284.45 413.39L284.42 424.11L281.34 425.9L281.37 415.18L284.45 413.39Z" fill="#301F16" fill-opacity="1.000000" fill-rule="nonzero"/>
    <path id="Vector" d="M314.68 421.95L314.65 432.68L310.77 430.44L310.8 419.72L314.68 421.95Z" fill="#301F16" fill-opacity="1.000000" fill-rule="nonzero"/>
    <path id="Vector" d="M314.68 421.98L314.64 432.7L303.91 438.94L303.94 428.21L314.68 421.98Z" fill="#553626" fill-opacity="1.000000" fill-rule="nonzero"/>
    <path id="Vector" d="M303.94 428.21L303.91 438.93L281.34 425.9L281.37 415.18L303.94 428.21Z" fill="#553626" fill-opacity="1.000000" fill-rule="nonzero"/>
    <path id="Vector" d="M303.94 428.73L303.91 439.45L280.44 425.9L280.47 415.18L303.94 428.73Z" fill="#F89D1F" fill-opacity="1.000000" fill-rule="nonzero"/>
    <path id="Vector" d="M315.58 421.98L315.55 432.7L303.92 439.46L303.95 428.74L315.58 421.98Z" fill="#F9B142" fill-opacity="1.000000" fill-rule="nonzero"/>
    <path id="Vector" d="M311.5 419.61L310.8 419.73L306.74 420.39L303.38 418.45L297.37 418.19L294.05 415.45L289.07 415.51L284.45 413.38L283.95 413.15L280.47 415.17L303.94 428.73L315.58 421.96L311.5 419.61Z" fill="#FBC977" fill-opacity="1.000000" fill-rule="nonzero"/>
    <g opacity="0.350000">
        <path id="Vector" d="M547.84 220.01L532.21 229.09L547.98 238.2L563.61 229.11L547.84 220.01Z" fill="#0C3461" fill-opacity="1.000000" fill-rule="nonzero"/>
        </g>
    <path id="Vector" d="M548 228.33L547.98 236.84L534.57 229.1L534.59 220.59L548 228.33Z" fill="#F89D1F" fill-opacity="1.000000" fill-rule="nonzero"/>
    <path id="Vector" d="M534.59 220.58L547.87 212.86L561.28 220.6L548 228.32L534.59 220.58Z" fill="#FBC977" fill-opacity="1.000000" fill-rule="nonzero"/>
    <path id="Vector" d="M561.28 220.6L561.25 229.11L547.97 236.83L548 228.32L561.28 220.6Z" fill="#F9B142" fill-opacity="1.000000" fill-rule="nonzero"/>
    <g opacity="0.350000">
        <path id="Vector" d="M543.86 341.02L513.48 358.68L544.12 376.37L574.51 358.71L543.86 341.02Z" fill="#0C3461" fill-opacity="1.000000" fill-rule="nonzero"/>
        </g>
    <path id="Vector" d="M544.16 357.18L544.11 373.72L518.07 358.68L518.11 342.14L544.16 357.18Z" fill="#F89D1F" fill-opacity="1.000000" fill-rule="nonzero"/>
    <path id="Vector" d="M518.11 342.14L543.91 327.15L569.96 342.19L544.16 357.18L518.11 342.14Z" fill="#FBC977" fill-opacity="1.000000" fill-rule="nonzero"/>
    <path id="Vector" d="M569.96 342.19L569.92 358.73L544.11 373.72L544.16 357.18L569.96 342.19Z" fill="#F9B142" fill-opacity="1.000000" fill-rule="nonzero"/>
    <g opacity="0.350000">
        <path id="Vector" d="M541.7 288.1L525.61 286.37L514.31 302.65L547.91 301.05L541.7 288.1Z" fill="#0C3461" fill-opacity="1.000000" fill-rule="nonzero"/>
        </g>
    <path id="Vector" d="M546.36 277.25L545.86 299.83L516.92 301.21L517.42 278.63L546.36 277.25Z" fill="#F89D1F" fill-opacity="1.000000" fill-rule="nonzero"/>
    <path id="Vector" d="M546.36 277.25L517.42 278.62L526.74 265.18L541.33 266.75L546.36 277.25Z" fill="#FBC977" fill-opacity="1.000000" fill-rule="nonzero"/>
    <g opacity="0.350000">
        <path id="Vector" d="M426.2 381.78L408.18 372.17L376.68 389.94L387.52 396.39L400.04 390.08L410.85 389.76L428.53 388.77L426.2 381.78Z" fill="#0C3461" fill-opacity="1.000000" fill-rule="nonzero"/>
        </g>
    <path id="Vector" d="M410.77 388.28L426.51 387.4L426.68 362.98L410.94 363.85L399.83 364.18L399.66 388.61L410.77 388.28Z" fill="#F89D1F" fill-opacity="1.000000" fill-rule="nonzero"/>
    <path id="Vector" d="M399.83 364.19L399.66 388.61L387.58 394.7L387.75 370.28L399.83 364.19Z" fill="#F9B142" fill-opacity="1.000000" fill-rule="nonzero"/>
    <path id="Vector" d="M387.76 370.27L387.58 394.69L379.63 389.97L379.81 365.54L387.76 370.27Z" fill="#F89D1F" fill-opacity="1.000000" fill-rule="nonzero"/>
    <path id="Vector" d="M426.68 362.97L410.94 363.85L399.83 364.18L387.75 370.27L379.81 365.54L408.37 349.43L425.15 358.37L426.68 362.97Z" fill="#FBC977" fill-opacity="1.000000" fill-rule="nonzero"/>
    <path id="Vector" d="M52.94 120.98L141.6 207.93L252 241.32L312.67 313.85L421.81 333.95L543.99 439.89L437.87 316.24L326.93 267.95L271.56 191.96L144.76 191.96L52.94 120.98Z" fill="#0C3461" fill-opacity="1.000000" fill-rule="nonzero"/>
    <path id="Vector" d="M52.94 120.98L141.6 207.93L144.76 208.89L144.76 191.96L52.94 120.98Z" fill="#144B8A" fill-opacity="1.000000" fill-rule="nonzero"/>
    <path id="Vector" d="M271.56 191.95L271.56 264.7L312.67 313.84L326.93 316.47L326.93 267.95L271.56 191.95Z" fill="#144B8A" fill-opacity="1.000000" fill-rule="nonzero"/>
    <path id="Vector" d="M437.87 316.25L437.87 347.89L543.99 439.9L437.87 316.25Z" fill="#144B8A" fill-opacity="1.000000" fill-rule="nonzero"/>
    <g opacity="0.350000">
        <path id="Vector" d="M509.19 230.77C509.16 231.53 509.16 232.3 509.09 233.05L509.09 233.06C509.03 233.88 508.9 234.69 508.8 235.51C508.71 236.27 508.64 237.03 508.52 237.79C508.38 238.61 508.19 239.42 508.02 240.24C507.87 240.99 507.74 241.75 507.55 242.51C507.35 243.32 507.09 244.12 506.86 244.93C506.64 245.69 506.45 246.44 506.2 247.19C505.93 248.01 505.6 248.81 505.3 249.62C505.02 250.36 504.76 251.11 504.45 251.84C504.12 252.65 503.72 253.45 503.35 254.25C503.01 254.96 502.7 255.68 502.34 256.4C502.33 256.43 502.32 256.45 502.31 256.48C501.9 257.26 501.44 258.05 501 258.84C500.65 259.47 500.32 260.11 499.94 260.74C499.85 260.89 499.77 261.04 499.68 261.18C499.24 261.9 498.76 262.61 498.29 263.33C497.88 263.97 497.48 264.62 497.03 265.26C496.92 265.44 496.79 265.61 496.67 265.79C496.19 266.47 495.66 267.14 495.15 267.82C494.65 268.49 494.18 269.16 493.66 269.82C493.55 269.96 493.43 270.1 493.32 270.23C492.78 270.9 492.19 271.56 491.63 272.22C491.18 272.75 490.75 273.28 490.29 273.8C490.06 274.06 489.82 274.32 489.59 274.58C488.99 275.24 488.34 275.88 487.72 276.53C487.12 277.16 486.55 277.79 485.92 278.41C485.77 278.56 485.6 278.71 485.44 278.86C484.77 279.52 484.05 280.16 483.35 280.82C482.73 281.39 482.13 281.97 481.49 282.54C481.41 282.62 481.33 282.68 481.25 282.76C480.4 283.51 479.48 284.24 478.59 284.98C477.95 285.5 477.35 286.03 476.7 286.55C476.58 286.64 476.46 286.75 476.34 286.84C475.35 287.62 474.32 288.37 473.29 289.13C472.7 289.57 472.13 290.02 471.53 290.45C471.36 290.57 471.19 290.69 471.03 290.82C469.94 291.59 468.8 292.34 467.67 293.09C467.09 293.47 466.54 293.87 465.95 294.25C465.74 294.39 465.53 294.53 465.32 294.66C463.45 295.86 461.53 297.04 459.54 298.19L447.84 281.5L445.32 281.39L421.33 280.41L416.77 280.22L402.29 253.41L366.97 253.41L351.64 227.44L312.49 221.06L297.16 197.16L259.71 197.58L259.71 174.24L251.35 174.33L227.24 174.6L222.25 174.66L216.65 157.96C283.29 119.23 391.69 119.23 458.77 157.96C493.48 178.01 510.27 204.5 509.19 230.77Z" fill="#0C3461" fill-opacity="1.000000" fill-rule="nonzero"/>
        </g>
    <path id="Vector" d="M506.06 222.4C506.09 222.31 506.13 222.22 506.16 222.13C506.17 222.1 506.18 222.07 506.19 222.03C505.92 222.84 505.59 223.65 505.29 224.46C505.54 223.77 505.83 223.09 506.06 222.4Z" fill="#FFCB47" fill-opacity="1.000000" fill-rule="nonzero"/>
    <path id="Vector" d="M502.19 231.52C502.23 231.44 502.26 231.38 502.3 231.31C501.89 232.1 501.43 232.88 500.99 233.67C501.4 232.95 501.82 232.24 502.19 231.52Z" fill="#FFCB47" fill-opacity="1.000000" fill-rule="nonzero"/>
    <path id="Vector" d="M507.43 217.8C507.46 217.67 507.5 217.54 507.53 217.41C507.53 217.39 507.54 217.36 507.54 217.34C507.34 218.15 507.08 218.96 506.85 219.77C507.04 219.11 507.26 218.46 507.43 217.8Z" fill="#FFCB47" fill-opacity="1.000000" fill-rule="nonzero"/>
    <path id="Vector" d="M508.42 213.15C508.44 212.99 508.48 212.82 508.5 212.66C508.51 212.65 508.51 212.64 508.51 212.62C508.38 213.44 508.18 214.26 508.02 215.07C508.15 214.43 508.31 213.79 508.42 213.15Z" fill="#FFCB47" fill-opacity="1.000000" fill-rule="nonzero"/>
    <path id="Vector" d="M509.03 208.46C509.05 208.27 509.07 208.09 509.08 207.89C509.02 208.71 508.9 209.53 508.8 210.34C508.87 209.71 508.97 209.09 509.03 208.46Z" fill="#FFCB47" fill-opacity="1.000000" fill-rule="nonzero"/>
    <path id="Vector" d="M499.56 236.2C499.6 236.14 499.64 236.07 499.67 236.01C499.24 236.73 498.75 237.44 498.29 238.16C498.71 237.5 499.16 236.85 499.56 236.2Z" fill="#FFCB47" fill-opacity="1.000000" fill-rule="nonzero"/>
    <path id="Vector" d="M496.52 240.81C496.56 240.74 496.61 240.67 496.66 240.6C496.18 241.29 495.65 241.96 495.14 242.64C495.6 242.03 496.08 241.43 496.52 240.81Z" fill="#FFCB47" fill-opacity="1.000000" fill-rule="nonzero"/>
    <path id="Vector" d="M485.22 253.89C485.29 253.82 485.36 253.76 485.43 253.69C484.76 254.35 484.04 255 483.34 255.64C483.97 255.06 484.62 254.48 485.22 253.89Z" fill="#FFCB47" fill-opacity="1.000000" fill-rule="nonzero"/>
    <path id="Vector" d="M481.16 257.66C481.18 257.64 481.21 257.61 481.24 257.59C480.39 258.34 479.47 259.07 478.58 259.81C479.44 259.09 480.33 258.39 481.16 257.66Z" fill="#FFCB47" fill-opacity="1.000000" fill-rule="nonzero"/>
    <path id="Vector" d="M489.48 249.52C489.52 249.48 489.55 249.44 489.58 249.41C488.98 250.07 488.34 250.71 487.71 251.37C488.3 250.75 488.91 250.14 489.48 249.52Z" fill="#FFCB47" fill-opacity="1.000000" fill-rule="nonzero"/>
    <path id="Vector" d="M493.07 245.36C493.15 245.26 493.23 245.16 493.31 245.07C492.77 245.73 492.18 246.39 491.62 247.05C492.1 246.49 492.6 245.93 493.07 245.36Z" fill="#FFCB47" fill-opacity="1.000000" fill-rule="nonzero"/>
    <path id="Vector" d="M504.37 226.89C504.37 226.87 504.38 226.86 504.39 226.85C504.41 226.8 504.42 226.75 504.44 226.69C504.11 227.5 503.71 228.29 503.34 229.09C503.68 228.36 504.05 227.63 504.37 226.89Z" fill="#FFCB47" fill-opacity="1.000000" fill-rule="nonzero"/>
    <path id="Vector" d="M465.22 292.03C465.44 291.89 465.66 291.75 465.87 291.61C467.6 290.49 469.28 289.36 470.9 288.21C471.09 288.08 471.27 287.94 471.45 287.81C473.08 286.64 474.67 285.46 476.19 284.26C476.34 284.14 476.49 284.02 476.64 283.9C478.17 282.68 479.66 281.44 481.09 280.19C481.2 280.09 481.31 280 481.42 279.9C482.03 279.35 482.64 278.81 483.24 278.26C483.9 277.66 484.52 277.04 485.16 276.43C485.38 276.2 485.62 275.98 485.85 275.76C487.09 274.54 488.28 273.3 489.42 272.05C489.69 271.75 489.95 271.45 490.22 271.15C491.18 270.07 492.11 268.98 493 267.89C493.19 267.65 493.4 267.41 493.59 267.18C493.67 267.06 493.77 266.96 493.86 266.85C494.77 265.69 495.62 264.52 496.45 263.35C496.63 263.1 496.8 262.86 496.96 262.62C497.86 261.33 498.7 260.03 499.5 258.73C499.63 258.52 499.75 258.31 499.87 258.09C500.17 257.6 500.47 257.11 500.75 256.62C501.23 255.76 501.69 254.9 502.13 254.04C502.18 253.94 502.22 253.85 502.27 253.75C503 252.31 503.69 250.85 504.3 249.4C504.31 249.38 504.31 249.37 504.32 249.35C504.67 248.53 505 247.71 505.31 246.88C505.55 246.23 505.78 245.58 506 244.92C506.03 244.83 506.06 244.74 506.09 244.65C506.57 243.21 506.99 241.77 507.36 240.32C507.39 240.19 507.43 240.06 507.47 239.93C507.69 239.04 507.89 238.14 508.07 237.25C508.18 236.72 508.26 236.2 508.35 235.68C508.38 235.51 508.41 235.35 508.44 235.18C508.67 233.78 508.84 232.39 508.97 230.98C508.99 230.8 509.01 230.6 509.02 230.42C509.1 229.42 509.17 228.42 509.19 227.42C509.21 226.92 509.22 226.42 509.22 225.92L509.28 203.4C509.28 204.14 509.22 204.87 509.19 205.6C509.15 206.37 509.15 207.13 509.09 207.9C509.07 208.09 509.05 208.28 509.03 208.47C508.98 209.09 508.87 209.72 508.8 210.34C508.7 211.1 508.63 211.87 508.51 212.63C508.51 212.64 508.51 212.65 508.51 212.66C508.48 212.83 508.45 212.99 508.42 213.16C508.31 213.8 508.15 214.43 508.02 215.07C507.86 215.83 507.73 216.59 507.54 217.34C507.54 217.36 507.53 217.39 507.53 217.41C507.5 217.54 507.46 217.67 507.43 217.8C507.26 218.46 507.04 219.11 506.85 219.77C506.63 220.52 506.44 221.28 506.19 222.03C506.18 222.06 506.17 222.1 506.16 222.13C506.13 222.22 506.09 222.31 506.06 222.4C505.83 223.09 505.54 223.77 505.29 224.45C505.01 225.2 504.75 225.94 504.44 226.68C504.42 226.73 504.41 226.78 504.38 226.84C504.38 226.85 504.37 226.86 504.37 226.88C504.05 227.62 503.68 228.35 503.34 229.08C502.99 229.83 502.67 230.57 502.3 231.31C502.26 231.38 502.23 231.45 502.19 231.52C501.82 232.24 501.4 232.96 500.99 233.68C500.56 234.46 500.14 235.24 499.67 236.02C499.64 236.08 499.6 236.14 499.56 236.21C499.16 236.86 498.71 237.51 498.29 238.16C497.75 238.99 497.23 239.81 496.66 240.62C496.61 240.69 496.57 240.76 496.52 240.82C496.08 241.44 495.6 242.05 495.14 242.66C494.54 243.46 493.95 244.27 493.31 245.07C493.23 245.17 493.15 245.27 493.07 245.36C492.6 245.93 492.1 246.5 491.62 247.06C490.95 247.85 490.29 248.64 489.58 249.41C489.55 249.45 489.52 249.49 489.48 249.53C488.92 250.15 488.3 250.76 487.71 251.37C486.96 252.15 486.22 252.93 485.43 253.7C485.36 253.77 485.29 253.84 485.22 253.9C484.62 254.49 483.97 255.07 483.34 255.65C482.64 256.3 481.97 256.95 481.24 257.59C481.21 257.62 481.19 257.64 481.16 257.67C480.33 258.39 479.44 259.1 478.58 259.82C477.83 260.44 477.11 261.07 476.33 261.68C476.3 261.7 476.28 261.72 476.26 261.74C475.3 262.49 474.28 263.23 473.28 263.97C472.53 264.53 471.8 265.1 471.01 265.65C471 265.67 470.98 265.68 470.96 265.69C469.9 266.44 468.77 267.18 467.66 267.92C466.88 268.45 466.12 268.98 465.31 269.5C465.3 269.5 465.29 269.51 465.28 269.51C463.42 270.71 461.51 271.88 459.53 273.03L459.53 295.51C460.21 295.12 460.89 294.72 461.56 294.32C462.81 293.57 464.02 292.8 465.22 292.03Z" fill="#F9C166" fill-opacity="1.000000" fill-rule="nonzero"/>
    <path id="Vector" d="M509.09 207.89C509.15 207.13 509.15 206.36 509.19 205.6C509.15 206.36 509.15 207.13 509.09 207.89C509.09 207.89 509.09 207.89 509.09 207.89Z" fill="#FFCB47" fill-opacity="1.000000" fill-rule="nonzero"/>
    <path id="Vector" d="M506.85 219.77C506.63 220.52 506.44 221.27 506.19 222.03C506.44 221.27 506.63 220.52 506.85 219.77Z" fill="#FFCB47" fill-opacity="1.000000" fill-rule="nonzero"/>
    <path id="Vector" d="M505.29 224.45C505.01 225.19 504.75 225.94 504.44 226.68C504.75 225.94 505.01 225.19 505.29 224.45Z" fill="#FFCB47" fill-opacity="1.000000" fill-rule="nonzero"/>
    <path id="Vector" d="M508.01 215.08C507.86 215.83 507.73 216.59 507.54 217.34C507.73 216.59 507.86 215.84 508.01 215.08Z" fill="#FFCB47" fill-opacity="1.000000" fill-rule="nonzero"/>
    <path id="Vector" d="M508.8 210.33C508.71 211.09 508.64 211.85 508.51 212.62C508.64 211.85 508.7 211.09 508.8 210.33Z" fill="#FFCB47" fill-opacity="1.000000" fill-rule="nonzero"/>
    <path id="Vector" d="M502.29 231.31C502.67 230.57 502.99 229.82 503.34 229.08C503 229.8 502.69 230.52 502.33 231.23C502.32 231.26 502.31 231.28 502.29 231.31Z" fill="#FFCB47" fill-opacity="1.000000" fill-rule="nonzero"/>
    <path id="Vector" d="M489.58 249.41C490.29 248.64 490.95 247.85 491.62 247.06C491.17 247.59 490.74 248.12 490.28 248.64C490.05 248.89 489.82 249.16 489.58 249.41Z" fill="#FFCB47" fill-opacity="1.000000" fill-rule="nonzero"/>
    <path id="Vector" d="M485.43 253.69C486.22 252.93 486.96 252.14 487.71 251.37C487.11 251.99 486.53 252.62 485.91 253.24C485.75 253.39 485.59 253.54 485.43 253.69Z" fill="#FFCB47" fill-opacity="1.000000" fill-rule="nonzero"/>
    <path id="Vector" d="M481.24 257.59C481.97 256.94 482.64 256.29 483.34 255.64C482.72 256.22 482.12 256.8 481.48 257.37C481.4 257.44 481.32 257.51 481.24 257.59Z" fill="#FFCB47" fill-opacity="1.000000" fill-rule="nonzero"/>
    <path id="Vector" d="M496.66 240.61C497.23 239.8 497.75 238.98 498.29 238.16C497.87 238.8 497.47 239.45 497.03 240.09C496.91 240.27 496.78 240.44 496.66 240.61Z" fill="#FFCB47" fill-opacity="1.000000" fill-rule="nonzero"/>
    <path id="Vector" d="M499.67 236.02C500.14 235.24 500.56 234.46 500.99 233.68C500.64 234.31 500.31 234.95 499.93 235.58C499.85 235.73 499.76 235.87 499.67 236.02Z" fill="#FFCB47" fill-opacity="1.000000" fill-rule="nonzero"/>
    <path id="Vector" d="M493.31 245.07C493.95 244.27 494.54 243.46 495.15 242.66C494.65 243.32 494.18 243.99 493.65 244.65C493.54 244.79 493.42 244.93 493.31 245.07Z" fill="#FFCB47" fill-opacity="1.000000" fill-rule="nonzero"/>
    <path id="Vector" d="M509.18 205.6C509.15 206.37 509.15 207.14 509.08 207.89L509.08 207.9C509.02 208.72 508.89 209.53 508.79 210.35C508.7 211.1 508.63 211.87 508.51 212.63C508.37 213.45 508.18 214.26 508.01 215.08C507.86 215.83 507.73 216.59 507.54 217.34C507.34 218.16 507.09 218.96 506.85 219.77C506.63 220.53 506.44 221.28 506.19 222.03C505.92 222.85 505.59 223.65 505.29 224.46C505.01 225.2 504.75 225.94 504.44 226.68C504.11 227.49 503.71 228.29 503.34 229.09C503 229.8 502.69 230.52 502.34 231.24C502.32 231.27 502.31 231.29 502.3 231.32C501.89 232.1 501.43 232.89 501 233.68C500.64 234.31 500.31 234.95 499.93 235.58C499.85 235.73 499.76 235.87 499.67 236.02C499.23 236.74 498.75 237.45 498.28 238.17C497.87 238.81 497.47 239.46 497.02 240.1C496.91 240.28 496.78 240.45 496.66 240.63C496.18 241.31 495.65 241.98 495.14 242.66C494.65 243.33 494.17 244 493.65 244.66C493.54 244.8 493.42 244.94 493.31 245.07C492.77 245.74 492.18 246.4 491.62 247.06C491.17 247.59 490.74 248.12 490.28 248.64C490.05 248.89 489.82 249.16 489.58 249.42C488.98 250.08 488.33 250.72 487.71 251.37C487.11 252 486.54 252.63 485.91 253.25C485.76 253.4 485.59 253.55 485.43 253.7C484.76 254.36 484.04 255 483.34 255.66C482.72 256.23 482.12 256.81 481.48 257.38C481.4 257.45 481.32 257.52 481.24 257.6C480.39 258.35 479.47 259.08 478.58 259.82C477.95 260.34 477.34 260.87 476.7 261.39C476.57 261.48 476.45 261.59 476.33 261.68C475.35 262.46 474.31 263.21 473.28 263.97C472.69 264.41 472.12 264.86 471.52 265.29C471.35 265.41 471.18 265.53 471.02 265.66C469.93 266.43 468.79 267.17 467.66 267.93C467.08 268.31 466.53 268.71 465.94 269.09C465.73 269.23 465.52 269.37 465.31 269.5C463.44 270.7 461.52 271.88 459.53 273.03L447.83 256.34L445.31 256.23L421.32 255.25L416.76 255.06L402.28 228.25L366.96 228.25L351.63 202.28L312.48 195.9L297.15 172L259.7 172.42L259.7 149.08L251.34 149.17L227.23 149.44L222.24 149.5L216.65 132.8C283.29 94.07 391.68 94.07 458.76 132.8C493.47 152.85 510.27 179.34 509.18 205.6Z" fill="#FBC977" fill-opacity="1.000000" fill-rule="nonzero"/>
    <path id="Vector" d="M366.95 228.25L368.53 228.25C368.94 227.59 369.31 226.93 369.6 226.25C371.47 221.96 371.41 217.72 369.4 213.52C367.4 209.32 363.8 204.01 358.61 197.6C353.89 191.73 351.33 187.61 350.91 185.25C350.47 182.88 351.96 180.71 355.39 178.71C358.76 176.76 362.79 175.78 367.51 175.76C372.2 175.74 376.48 176.85 380.35 179.08C388.07 183.53 388.49 189.89 381.62 198.16L408.21 204.59C419.08 193.03 417.8 182.3 404.29 172.39L416.86 165.08L403.13 157.16L390.57 164.46C378.99 159.42 367.67 157.39 356.57 158.37C345.47 159.35 335.94 162.15 327.97 166.78C321.9 170.31 317.88 174.17 315.96 178.36C314.03 182.54 313.92 186.59 315.62 190.52C316.47 192.45 317.7 194.62 319.33 197.02L351.63 202.29L366.95 228.25Z" fill="#F89D1F" fill-opacity="1.000000" fill-rule="nonzero"/>
    <path id="Vector" d="M441.97 141.39C386.34 109.06 295.5 109.06 239.52 141.39C235.07 143.96 230.98 146.65 227.24 149.46L251.34 149.18C251.6 149.02 251.87 148.87 252.13 148.72C301.12 120.44 380.6 120.44 429.27 148.72C477.96 177.01 477.68 223.04 428.69 251.33C426.3 252.7 423.85 254.02 421.32 255.26L445.31 256.24C497.27 223.77 496.24 172.93 441.97 141.39Z" fill="#F89D1F" fill-opacity="1.000000" fill-rule="nonzero"/>
    <path id="Vector" d="M216.65 155.28L222.24 171.98L222.24 149.48L216.65 132.78L216.65 155.28Z" fill="#DB8918" fill-opacity="1.000000" fill-rule="nonzero"/>
    <path id="Vector" d="M297.16 194.48L312.48 218.37L312.48 195.88L297.16 171.98L297.16 194.48Z" fill="#DB8918" fill-opacity="1.000000" fill-rule="nonzero"/>
    <path id="Vector" d="M351.64 224.76L366.95 250.71L366.96 228.22L351.64 202.26L351.64 224.76Z" fill="#DB8918" fill-opacity="1.000000" fill-rule="nonzero"/>
    <path id="Vector" d="M402.29 250.73L416.76 277.54L416.76 255.05L402.29 228.23L402.29 250.73Z" fill="#DB8918" fill-opacity="1.000000" fill-rule="nonzero"/>
    <path id="Vector" d="M447.83 278.81L459.53 295.5L459.53 273.01L447.83 256.32L447.83 278.81Z" fill="#DB8918" fill-opacity="1.000000" fill-rule="nonzero"/>
    <path id="Vector" d="M259.7 171.55L222.24 171.97L222.24 149.48L259.7 149.05L259.7 171.55Z" fill="#F8AB37" fill-opacity="1.000000" fill-rule="nonzero"/>
    <path id="Vector" d="M297.16 194.48L259.7 194.9L259.7 172.41L297.16 171.98L297.16 194.48Z" fill="#F8AB37" fill-opacity="1.000000" fill-rule="nonzero"/>
    <path id="Vector" d="M351.64 224.75L312.48 218.37L312.48 195.87L351.63 202.26L351.64 224.75Z" fill="#F8AB37" fill-opacity="1.000000" fill-rule="nonzero"/>
    <path id="Vector" d="M402.29 250.73L366.95 250.73L366.96 228.23L402.28 228.23L402.29 250.73Z" fill="#F8AB37" fill-opacity="1.000000" fill-rule="nonzero"/>
    <path id="Vector" d="M447.83 278.82L416.76 277.54L416.76 255.04L447.83 256.32L447.83 278.82Z" fill="#F8AB37" fill-opacity="1.000000" fill-rule="nonzero"/>
    <g opacity="0.350000">
        <path id="Vector" d="M362.87 353.98C361.01 355.05 359.11 356.09 357.2 357.1C356.7 357.37 356.19 357.64 355.68 357.9C355.18 358.16 354.65 358.41 354.14 358.66C352.92 359.28 351.69 359.91 350.44 360.51C350.21 360.62 349.98 360.74 349.75 360.85C349.03 361.19 348.29 361.5 347.56 361.83C346.29 362.41 345.03 363 343.73 363.55C343.21 363.78 342.68 364 342.15 364.22C340.43 364.95 338.68 365.66 336.92 366.34C336.53 366.49 336.15 366.65 335.77 366.8C333.68 367.59 331.57 368.35 329.44 369.09C328.93 369.27 328.4 369.44 327.89 369.61C327.42 369.77 326.95 369.91 326.48 370.07C325.5 370.39 324.52 370.71 323.53 371.02C322.15 371.46 320.76 371.88 319.37 372.29C318.19 372.64 317.01 372.98 315.82 373.31C314.41 373.7 312.99 374.07 311.56 374.44C311.01 374.59 310.45 374.72 309.91 374.86C309.26 375.03 308.61 375.19 307.96 375.35C306.51 375.7 305.05 376.03 303.6 376.35C302.39 376.63 301.18 376.9 299.97 377.15C298.48 377.46 296.99 377.75 295.49 378.03C294.16 378.28 292.84 378.54 291.5 378.78C290.89 378.89 290.29 378.99 289.68 379.09C287.63 379.43 285.58 379.76 283.51 380.05C283.17 380.1 282.82 380.16 282.47 380.21C282.15 380.25 281.83 380.29 281.51 380.33C279.47 380.61 277.43 380.87 275.38 381.11C274.79 381.18 274.19 381.24 273.6 381.3C273.29 381.34 272.98 381.36 272.67 381.39C271.51 381.51 270.35 381.63 269.18 381.73C267.35 381.9 265.52 382.06 263.68 382.19C262.52 382.28 261.36 382.36 260.2 382.43C258.29 382.55 256.37 382.64 254.45 382.72C253.37 382.77 252.28 382.83 251.2 382.86C249.53 382.91 247.87 382.93 246.19 382.95C245.63 382.96 245.06 382.97 244.5 382.98C243.9 382.98 243.3 383 242.7 383.01C240.91 383.01 239.13 382.98 237.34 382.95C236.3 382.93 235.24 382.93 234.19 382.91C232.55 382.86 230.92 382.78 229.28 382.71C228.14 382.66 227 382.63 225.86 382.57C224.13 382.48 222.4 382.35 220.68 382.22C219.87 382.16 219.07 382.11 218.28 382.05C218.04 382.03 217.8 382.02 217.57 382C215.44 381.83 213.32 381.61 211.21 381.39C210.59 381.32 209.95 381.27 209.33 381.2C206.59 380.9 203.86 380.55 201.15 380.17C201.04 380.15 200.93 380.13 200.83 380.12C200.47 380.07 200.13 380 199.77 379.95C197.46 379.62 195.16 379.26 192.88 378.87C191.9 378.7 190.94 378.5 189.97 378.32C188.21 378 186.45 377.68 184.7 377.32C183.78 377.13 182.87 376.92 181.95 376.72C180.03 376.3 178.11 375.87 176.2 375.42C175.65 375.28 175.1 375.14 174.54 375.01C174.04 374.87 173.53 374.75 173.03 374.62C171.29 374.18 169.56 373.73 167.84 373.25C166.36 372.84 164.88 372.42 163.42 371.99C162.88 371.83 162.33 371.67 161.79 371.5C161.17 371.31 160.55 371.1 159.94 370.9C158.37 370.41 156.79 369.92 155.24 369.39C154.83 369.25 154.42 369.1 154.02 368.96C152.22 368.34 150.44 367.7 148.68 367.03C148.09 366.81 147.49 366.59 146.89 366.35C146.14 366.06 145.4 365.76 144.66 365.45C144.02 365.2 143.37 364.94 142.73 364.68C141.79 364.29 140.84 363.91 139.9 363.5C138.56 362.93 137.24 362.32 135.92 361.72C135.05 361.33 134.18 360.94 133.33 360.53C132.62 360.2 131.94 359.84 131.24 359.5C130.51 359.14 129.77 358.78 129.05 358.41C128.35 358.06 127.64 357.72 126.95 357.36C124.86 356.27 122.8 355.14 120.78 353.98C118.46 352.63 116.23 351.25 114.07 349.86C113.37 349.41 112.71 348.94 112.03 348.49C110.59 347.52 109.17 346.55 107.8 345.56C107.06 345.02 106.33 344.47 105.61 343.93C104.36 342.99 103.14 342.03 101.96 341.07C101.27 340.51 100.58 339.94 99.91 339.37C98.71 338.35 97.56 337.32 96.44 336.28C95.89 335.77 95.31 335.27 94.78 334.75C93.31 333.34 91.92 331.92 90.58 330.48C90.44 330.33 90.28 330.18 90.14 330.03C88.69 328.43 87.32 326.82 86.03 325.19C85.62 324.69 85.26 324.18 84.88 323.67C84.01 322.53 83.16 321.39 82.37 320.23C81.95 319.62 81.56 319 81.16 318.39C80.46 317.31 79.8 316.23 79.17 315.14C78.74 314.39 78.3 313.64 77.9 312.89C77.63 312.39 77.37 311.87 77.11 311.36C76.62 310.39 76.17 309.42 75.73 308.44C75.53 307.98 75.31 307.52 75.12 307.06C74.56 305.73 74.04 304.39 73.58 303.06C73.55 302.96 73.51 302.86 73.47 302.76C72.98 301.33 72.56 299.88 72.19 298.44C72.07 298 71.98 297.55 71.87 297.1C71.63 296.09 71.41 295.07 71.22 294.05C71.13 293.53 71.05 293 70.96 292.48C70.81 291.51 70.69 290.54 70.59 289.57C70.53 289.05 70.48 288.54 70.44 288.04C70.35 286.94 70.3 285.85 70.28 284.76C70.27 284.38 70.25 284.01 70.25 283.64C70.2 258.33 86.76 233.05 119.98 213.74L125.57 230.44L129.78 230.39L155.27 230.11L163.03 230.02L163.03 252.57L200.06 252.57L215.81 276.84L254.97 283.22L270.29 309.18L305.62 309.18L320.09 336L325.46 336.22L348.26 337.16L351.16 337.28L362.87 353.98Z" fill="#0C3461" fill-opacity="1.000000" fill-rule="nonzero"/>
        </g>
    <mask id="mask3200_4023" mask-type="alpha" maskUnits="userSpaceOnUse" x="124.385742" y="0.000000" width="296.019531" height="329.101562">
        <path id="Vector" d="M420.4 253.07C420.4 252.32 420.4 251.56 420.39 250.81C420.38 250.43 420.38 250.07 420.37 249.69C420.37 249.24 420.35 248.79 420.34 248.35C420.32 247.52 420.3 246.69 420.27 245.86C420.25 245.33 420.22 244.8 420.19 244.26C420.16 243.51 420.12 242.76 420.08 242.01C420.05 241.44 420.01 240.87 419.98 240.3C419.93 239.58 419.88 238.85 419.82 238.12C419.78 237.54 419.73 236.96 419.68 236.37C419.62 235.65 419.55 234.93 419.48 234.21C419.43 233.62 419.37 233.04 419.31 232.45C419.23 231.7 419.15 230.95 419.06 230.19C419 229.64 418.94 229.08 418.87 228.52C418.73 227.34 418.57 226.16 418.4 224.98C418.31 224.32 418.21 223.67 418.12 223.01C418.01 222.3 417.91 221.59 417.8 220.87C417.69 220.2 417.58 219.54 417.47 218.87C417.37 218.23 417.26 217.59 417.15 216.94C417.03 216.25 416.9 215.56 416.77 214.87C416.66 214.25 416.55 213.63 416.43 213.01C416.29 212.3 416.15 211.6 416.01 210.89C415.89 210.29 415.77 209.69 415.64 209.08C415.49 208.36 415.34 207.64 415.18 206.91C415.06 206.34 414.93 205.76 414.8 205.18C414.63 204.43 414.47 203.69 414.29 202.94C414.17 202.43 414.04 201.91 413.92 201.4C413.24 198.55 412.5 195.7 411.71 192.85C411.58 192.37 411.45 191.89 411.32 191.41C411.09 190.6 410.86 189.8 410.62 189C410.47 188.49 410.33 187.97 410.17 187.46C409.94 186.66 409.69 185.87 409.45 185.07C409.29 184.56 409.13 184.04 408.97 183.53C408.72 182.73 408.47 181.93 408.21 181.13C408.05 180.63 407.88 180.13 407.72 179.63C407.45 178.82 407.18 178 406.9 177.18C406.75 176.73 406.6 176.28 406.44 175.84C406.14 174.97 405.84 174.1 405.54 173.23C405.47 173.05 405.41 172.88 405.35 172.71C404.57 170.54 403.78 168.37 402.95 166.2C402.9 166.07 402.85 165.93 402.8 165.8C402.45 164.92 402.1 164.03 401.76 163.14C401.59 162.72 401.42 162.3 401.26 161.88C400.92 161.05 400.59 160.22 400.24 159.38C400.05 158.92 399.86 158.46 399.67 157.99C399.33 157.17 398.99 156.36 398.64 155.54C398.44 155.07 398.23 154.6 398.03 154.12C397.68 153.3 397.33 152.49 396.97 151.68C396.77 151.22 396.56 150.77 396.36 150.31C395.99 149.48 395.61 148.64 395.23 147.82C395.06 147.43 394.88 147.04 394.7 146.66C393.32 143.66 391.89 140.68 390.4 137.71L389.91 136.71C389.5 135.9 389.08 135.09 388.67 134.28C388.44 133.82 388.2 133.37 387.96 132.91C387.56 132.14 387.15 131.36 386.74 130.59C386.48 130.1 386.23 129.62 385.96 129.12C385.56 128.37 385.15 127.62 384.74 126.86C384.47 126.37 384.2 125.87 383.92 125.37C383.51 124.63 383.1 123.88 382.68 123.14C382.4 122.65 382.12 122.16 381.84 121.67C381.42 120.93 380.99 120.18 380.56 119.43C380.3 118.98 380.04 118.53 379.77 118.09C378.74 116.33 377.69 114.58 376.63 112.83C376.54 112.68 376.45 112.53 376.36 112.38C375.93 111.68 375.49 110.98 375.05 110.28C374.73 109.77 374.41 109.25 374.08 108.73C373.66 108.06 373.24 107.4 372.81 106.74C372.46 106.19 372.11 105.64 371.76 105.1C371.34 104.46 370.92 103.81 370.5 103.18C370.13 102.61 369.75 102.05 369.38 101.5C368.97 100.87 368.54 100.25 368.12 99.62C367.73 99.05 367.34 98.48 366.95 97.91C366.53 97.31 366.12 96.71 365.71 96.11C365.29 95.51 364.86 94.91 364.44 94.31C364.04 93.75 363.64 93.18 363.24 92.62C362.71 91.88 362.16 91.14 361.63 90.4C361.11 89.69 360.59 88.99 360.07 88.29C359.47 87.49 358.88 86.69 358.28 85.89C357.91 85.41 357.54 84.93 357.17 84.45C356.67 83.8 356.17 83.14 355.67 82.49C355.28 81.99 354.89 81.5 354.5 81.01C354 80.38 353.5 79.75 353 79.12C352.61 78.63 352.21 78.15 351.82 77.66C351.31 77.03 350.8 76.4 350.28 75.78C349.89 75.31 349.51 74.84 349.12 74.38C348.57 73.72 348.02 73.07 347.47 72.42C347.11 72 346.75 71.57 346.39 71.15C345.74 70.4 345.09 69.65 344.44 68.91C344.16 68.59 343.89 68.28 343.62 67.97C342.69 66.92 341.75 65.87 340.81 64.83C340.66 64.67 340.51 64.51 340.36 64.34C339.56 63.47 338.76 62.6 337.94 61.74C337.64 61.41 337.34 61.09 337.03 60.77C336.37 60.07 335.71 59.37 335.04 58.69C334.7 58.33 334.35 57.98 334.01 57.62C333.37 56.96 332.73 56.32 332.09 55.67C331.74 55.32 331.38 54.97 331.03 54.61C330.37 53.96 329.71 53.32 329.05 52.67C328.72 52.35 328.38 52.02 328.05 51.69C327.32 51 326.6 50.31 325.87 49.63C325.6 49.37 325.32 49.1 325.04 48.84C324.09 47.95 323.12 47.06 322.16 46.19C322.11 46.14 322.07 46.11 322.02 46.07C320.97 45.12 319.92 44.18 318.86 43.25C318.72 43.13 318.59 43.02 318.46 42.91C317.56 42.12 316.67 41.35 315.76 40.59C315.48 40.35 315.19 40.12 314.91 39.88C314.4 39.45 313.88 39.01 313.36 38.59C313.15 38.4 312.93 38.23 312.71 38.05C312.23 37.66 311.74 37.27 311.26 36.89C310.59 36.35 309.93 35.82 309.26 35.29C308.82 34.95 308.39 34.61 307.96 34.28C307.25 33.73 306.54 33.17 305.82 32.63C305.41 32.33 305 32.03 304.6 31.72C303.85 31.17 303.11 30.61 302.36 30.08C301.97 29.78 301.57 29.51 301.18 29.23C300.42 28.68 299.66 28.14 298.9 27.61C298.5 27.33 298.1 27.07 297.7 26.79C296.94 26.27 296.17 25.74 295.41 25.23C295 24.96 294.59 24.7 294.18 24.43C293.42 23.93 292.66 23.43 291.89 22.94C291.47 22.68 291.06 22.42 290.64 22.17C289.88 21.69 289.11 21.21 288.35 20.74C288.04 20.55 287.74 20.38 287.43 20.19C286.56 19.68 285.69 19.16 284.82 18.65C283.73 18.02 282.65 17.41 281.57 16.82C281.34 16.7 281.11 16.57 280.89 16.44C279.97 15.95 279.05 15.46 278.14 14.98C277.96 14.89 277.79 14.8 277.61 14.71C276.53 14.15 275.45 13.61 274.38 13.08C274.25 13.02 274.13 12.95 273.99 12.89C273.06 12.44 272.13 12 271.2 11.57C270.96 11.46 270.72 11.35 270.49 11.24C269.47 10.78 268.46 10.32 267.46 9.89C267.43 9.87 267.4 9.86 267.36 9.85C266.31 9.39 265.25 8.96 264.2 8.53C263.99 8.45 263.78 8.37 263.57 8.29C262.7 7.94 261.84 7.6 260.98 7.29C260.78 7.21 260.57 7.13 260.36 7.06C259.32 6.67 258.29 6.3 257.26 5.95C257.2 5.94 257.15 5.91 257.09 5.9C256.14 5.57 255.19 5.26 254.24 4.97C254 4.9 253.77 4.82 253.53 4.75C252.65 4.48 251.77 4.21 250.89 3.97C250.79 3.94 250.69 3.91 250.6 3.88C250.57 3.88 250.54 3.87 250.51 3.86C249.51 3.58 248.51 3.32 247.52 3.07C247.46 3.05 247.39 3.04 247.34 3.02C247.21 2.99 247.08 2.97 246.95 2.93C246.13 2.73 245.32 2.55 244.51 2.37C244.28 2.32 244.06 2.26 243.82 2.21C241.88 1.8 239.95 1.44 238.05 1.14C237.81 1.1 237.58 1.07 237.34 1.03C236.56 0.92 235.79 0.81 235.02 0.71C234.89 0.7 234.76 0.68 234.62 0.66C234.56 0.65 234.51 0.65 234.45 0.64C233.52 0.53 232.59 0.44 231.66 0.35C231.49 0.33 231.32 0.32 231.15 0.31C230.39 0.25 229.64 0.19 228.89 0.15C228.63 0.14 228.39 0.12 228.13 0.11C227.31 0.07 226.5 0.03 225.68 0.02C225.6 0.02 225.51 0.01 225.42 0.01C224.53 -0.01 223.65 -0.01 222.77 0C222.53 0.01 222.28 0.01 222.04 0.02C221.37 0.03 220.7 0.05 220.04 0.08C219.79 0.1 219.56 0.11 219.31 0.12C218.47 0.17 217.62 0.23 216.78 0.3C216.65 0.31 216.53 0.32 216.4 0.33L216.29 0.35C215.6 0.41 214.92 0.48 214.24 0.56C213.96 0.6 213.69 0.63 213.41 0.67C212.78 0.75 212.14 0.85 211.5 0.95C211.3 0.98 211.09 1.01 210.89 1.04C210.1 1.17 209.31 1.32 208.53 1.48C208.27 1.53 208.02 1.58 207.76 1.64C207.2 1.76 206.64 1.89 206.08 2.02C205.8 2.08 205.52 2.15 205.24 2.22C204.54 2.4 203.84 2.58 203.14 2.78C202.93 2.84 202.73 2.9 202.52 2.96C201.91 3.15 201.3 3.33 200.69 3.53C200.4 3.62 200.11 3.73 199.82 3.82C199.32 4 198.82 4.17 198.32 4.36C198.06 4.45 197.79 4.55 197.52 4.65C196.83 4.91 196.14 5.19 195.46 5.48C195.19 5.59 194.93 5.71 194.67 5.82C194.2 6.03 193.74 6.24 193.28 6.45C192.98 6.59 192.69 6.73 192.39 6.87C191.91 7.1 191.43 7.35 190.95 7.6C190.64 7.75 190.33 7.91 190.02 8.08C189.47 8.37 188.92 8.67 188.39 8.98C188.27 9.05 188.16 9.1 188.04 9.17L164.39 22.92C164.28 22.99 164.17 23.05 164.06 23.11C153.1 29.49 144 39.08 137.3 51.6C136.83 52.49 136.37 53.4 135.92 54.31C135.85 54.44 135.78 54.58 135.72 54.72C135.27 55.63 134.85 56.55 134.43 57.49C134.39 57.58 134.35 57.67 134.31 57.76C133.91 58.66 133.52 59.58 133.15 60.51C133.1 60.6 133.06 60.71 133.03 60.8C132.64 61.76 132.27 62.74 131.9 63.73C131.84 63.9 131.78 64.07 131.72 64.24C131.36 65.23 131.02 66.22 130.69 67.23C130.68 67.25 130.67 67.28 130.67 67.3C130.67 67.3 130.66 67.3 130.66 67.31C130.66 67.31 130.66 67.32 130.66 67.32C130.34 68.3 130.03 69.3 129.74 70.31C129.65 70.61 129.57 70.91 129.48 71.21C129.24 72.05 129.01 72.9 128.78 73.75C128.73 73.97 128.67 74.19 128.61 74.41C128.35 75.42 128.11 76.44 127.88 77.48C127.8 77.82 127.72 78.18 127.65 78.53C127.47 79.32 127.31 80.12 127.15 80.91C127.08 81.25 127.01 81.58 126.95 81.91C126.76 82.95 126.57 84 126.4 85.06C126.33 85.44 126.27 85.83 126.21 86.22C126.09 87 125.97 87.78 125.86 88.57C125.81 88.98 125.75 89.39 125.7 89.8C125.56 90.87 125.43 91.96 125.31 93.05C125.26 93.45 125.23 93.85 125.19 94.25C125.11 95.05 125.03 95.87 124.96 96.69C124.93 97.14 124.89 97.59 124.85 98.05C124.77 99.18 124.69 100.31 124.63 101.46C124.61 101.81 124.6 102.17 124.58 102.52C124.54 103.43 124.5 104.33 124.48 105.25C124.46 105.71 124.45 106.18 124.43 106.64C124.41 107.71 124.39 108.78 124.39 109.87C124.39 110.04 124.38 110.2 124.38 110.37C124.36 116.31 124.64 122.33 125.18 128.41C126.88 147.48 131.26 167.15 137.87 186.64C138.57 188.74 139.31 190.84 140.07 192.93C140.09 192.98 140.11 193.03 140.13 193.09C140.59 194.35 141.06 195.6 141.54 196.86C141.67 197.22 141.81 197.57 141.94 197.93C142.44 199.21 142.93 200.5 143.44 201.78C143.52 201.96 143.59 202.13 143.66 202.31C144.13 203.46 144.6 204.62 145.07 205.77C145.22 206.12 145.36 206.47 145.51 206.82C145.88 207.7 146.25 208.59 146.63 209.47L252 241.34L312.66 313.86L326.93 316.48L395.39 329.1C395.65 328.84 395.89 328.57 396.13 328.31C396.42 328 396.71 327.69 396.99 327.37C397.06 327.3 397.14 327.21 397.21 327.14C397.45 326.85 397.69 326.57 397.93 326.29C398.21 325.96 398.48 325.64 398.75 325.32C399.06 324.94 399.36 324.56 399.66 324.18C399.93 323.85 400.2 323.51 400.46 323.17C400.76 322.78 401.05 322.39 401.34 321.99C401.59 321.65 401.85 321.3 402.1 320.94C402.39 320.54 402.67 320.13 402.95 319.72C403.19 319.36 403.44 319 403.68 318.64C403.95 318.21 404.23 317.79 404.5 317.36C404.73 316.98 404.96 316.62 405.19 316.24C405.29 316.07 405.4 315.91 405.5 315.73C405.67 315.46 405.82 315.19 405.98 314.91C406.2 314.53 406.42 314.15 406.64 313.76C406.89 313.31 407.14 312.85 407.39 312.39C407.6 312 407.81 311.6 408.02 311.2C408.13 310.99 408.25 310.79 408.35 310.57C408.48 310.32 408.61 310.04 408.74 309.78C408.94 309.37 409.14 308.97 409.33 308.56C409.56 308.07 409.8 307.58 410.02 307.09C410.21 306.68 410.39 306.26 410.58 305.84C410.69 305.59 410.81 305.33 410.92 305.07C410.99 304.92 411.05 304.76 411.11 304.61C411.15 304.51 411.19 304.41 411.23 304.32C411.4 303.9 411.58 303.47 411.75 303.04C411.96 302.52 412.17 301.99 412.37 301.46C412.54 301.03 412.7 300.6 412.86 300.16C412.97 299.85 413.09 299.55 413.2 299.23C413.28 299 413.35 298.76 413.44 298.54C413.59 298.1 413.74 297.65 413.89 297.19C414.08 296.65 414.26 296.09 414.44 295.53C414.58 295.07 414.72 294.62 414.85 294.16C415.02 293.59 415.2 293.02 415.36 292.44C415.49 291.98 415.61 291.51 415.74 291.04C415.9 290.46 416.06 289.87 416.21 289.27C416.32 288.8 416.44 288.32 416.56 287.85C416.7 287.25 416.84 286.64 416.98 286.03C417.09 285.55 417.19 285.05 417.29 284.57C417.42 283.95 417.55 283.34 417.67 282.71C417.77 282.22 417.86 281.72 417.96 281.22C418.07 280.59 418.19 279.96 418.3 279.32C418.38 278.81 418.46 278.3 418.54 277.78C418.64 277.14 418.74 276.5 418.84 275.85C418.91 275.33 418.98 274.79 419.05 274.26C419.14 273.62 419.22 272.97 419.3 272.31C419.37 271.76 419.42 271.21 419.48 270.66C419.55 270.01 419.63 269.35 419.68 268.69C419.74 268.12 419.78 267.54 419.83 266.97C419.88 266.31 419.94 265.66 419.99 265C420.03 264.39 420.06 263.76 420.1 263.15C420.14 262.51 420.18 261.88 420.21 261.23C420.24 260.52 420.26 259.8 420.29 259.07C420.31 258.51 420.33 257.97 420.35 257.4C420.38 256.12 420.39 254.81 420.4 253.5C420.4 253.35 420.4 253.21 420.4 253.07Z" fill="#000000" fill-opacity="1.000000" fill-rule="nonzero"/>
        </mask>
    <g mask="url(#mask3200_4023)">
        <g opacity="0.500000">
            <path id="Vector" d="M313.37 38.59C304.17 31.01 294.62 24.31 284.82 18.65C230.26 -12.85 183.11 -3.09 161.29 37.67C153.06 53.03 148.43 72.8 148.37 96.44C148.29 122.95 153.97 151.25 164.06 178.99C186.78 241.52 231.89 301.21 283.93 331.25C286.77 332.88 289.59 334.42 292.39 335.83C363.6 371.91 420.16 336.54 420.41 253.5C420.61 178.43 374.73 89.12 313.37 38.59Z" fill="#175294" fill-opacity="1.000000" fill-rule="nonzero"/>
            </g>
        <path id="Vector" d="M289.39 52.53C280.19 44.96 270.64 38.25 260.84 32.6C206.27 1.09 159.13 10.85 137.31 51.62C129.08 66.98 124.44 86.75 124.38 110.38C124.31 136.9 129.99 165.2 140.08 192.94C162.8 255.46 207.91 315.15 259.95 345.19C262.79 346.83 265.61 348.36 268.41 349.77C339.61 385.85 396.18 350.48 396.42 267.44C396.63 192.37 350.75 103.07 289.39 52.53Z" fill="#FF8666" fill-opacity="1.000000" fill-rule="nonzero"/>
        <path id="Vector" d="M289.39 52.53C280.19 44.96 270.64 38.25 260.84 32.6C206.27 1.09 159.13 10.85 137.31 51.62C129.08 66.98 124.44 86.75 124.38 110.38C124.31 136.9 129.99 165.2 140.08 192.94C162.8 255.46 207.91 315.15 259.95 345.19C262.79 346.83 265.61 348.36 268.41 349.77C339.61 385.85 396.18 350.48 396.42 267.44C396.63 192.37 350.75 103.07 289.39 52.53Z" fill="#FBC977" fill-opacity="1.000000" fill-rule="nonzero"/>
        <path id="Vector" d="M124.39 110.38C124.3 136.9 129.99 165.2 140.08 192.94C157.5 240.89 188.09 287.16 224.87 319.67C236.06 329.57 247.82 338.19 259.95 345.19C262.79 346.83 265.61 348.36 268.41 349.77C339.61 385.85 396.18 350.48 396.43 267.44C396.63 192.37 350.75 103.06 289.38 52.53C280.19 44.95 270.64 38.25 260.84 32.6C206.27 1.09 159.13 10.85 137.3 51.61C134.73 56.42 132.5 61.66 130.67 67.32C130.67 67.32 130.66 67.33 130.66 67.33C126.63 79.74 124.43 94.15 124.39 110.38Z" fill="#FF8666" fill-opacity="1.000000" fill-rule="nonzero"/>
        <mask id="mask3200_4009" mask-type="alpha" maskUnits="userSpaceOnUse" x="164.070312" y="0.027344" width="256.338867" height="354.664062">
            <path id="Vector" d="M356.75 354.69L380.73 340.75C405.14 326.56 420.28 296.39 420.4 253.52C420.65 167.2 359.94 62.05 284.82 18.68C247.02 -3.15 212.77 -5.17 188.05 9.2L164.07 23.14C188.79 8.77 223.04 10.79 260.84 32.62C335.96 75.99 396.67 181.14 396.42 267.46C396.3 310.33 381.16 340.5 356.75 354.69Z" fill="#000000" fill-opacity="1.000000" fill-rule="nonzero"/>
            </mask>
        <g mask="url(#mask3200_4009)">
            <path id="Vector" d="M356.75 354.69L380.73 340.75C405.14 326.56 420.28 296.39 420.4 253.52C420.65 167.2 359.94 62.05 284.82 18.68C247.02 -3.15 212.77 -5.17 188.05 9.2L164.07 23.14C188.79 8.76 223.04 10.79 260.84 32.61C335.96 75.99 396.67 181.14 396.42 267.46C396.3 310.33 381.16 340.5 356.75 354.69Z" fill="#D69746" fill-opacity="1.000000" fill-rule="nonzero"/>
            </g>
        <path id="Vector" d="M148.38 124.21C148.58 53.23 199.01 24.52 260.76 60.17C322.53 95.84 372.61 182.58 372.41 253.56C372.21 324.52 321.8 353.27 260.03 317.6C198.28 281.95 148.18 195.18 148.38 124.21ZM260.71 76.26C206.68 45.07 162.56 70.19 162.38 132.3C162.21 194.39 206.04 270.32 260.07 301.51C314.13 332.72 358.23 307.56 358.41 245.48C358.58 183.37 314.77 107.47 260.71 76.26Z" fill="#ED4944" fill-opacity="1.000000" fill-rule="nonzero"/>
        <path id="Vector" d="M260.84 32.59C223.04 10.76 188.8 8.74 164.07 23.11L188.05 9.17C212.78 -5.2 247.02 -3.17 284.82 18.65C288.92 21.01 292.96 23.6 296.96 26.32L272.91 40.2C268.93 37.5 264.91 34.94 260.84 32.59Z" fill="#FFA991" fill-opacity="1.000000" fill-rule="nonzero"/>
        <path id="Vector" d="M272.91 40.2L296.96 26.32C331.76 49.96 362.75 86.46 384.98 127.3L360.96 141.17C338.72 100.33 307.72 63.83 272.91 40.2Z" fill="#FF967A" fill-opacity="1.000000" fill-rule="nonzero"/>
        <path id="Vector" d="M396.11 256.68C394.09 218.9 381.15 178.26 360.96 141.16L384.97 127.29C405.17 164.4 418.1 205.05 420.1 242.83L396.11 256.68Z" fill="#FF8666" fill-opacity="1.000000" fill-rule="nonzero"/>
        <path id="Vector" d="M420.41 253.5C420.29 296.37 405.15 326.53 380.73 340.72L356.75 354.66C381.17 340.47 396.3 310.3 396.43 267.43C396.44 263.88 396.31 260.29 396.11 256.69L420.1 242.84C420.29 246.42 420.42 249.98 420.41 253.5Z" fill="#ED4944" fill-opacity="1.000000" fill-rule="nonzero"/>
        <path id="Vector" d="M304.99 177.06C322.5 199.94 327.36 220.37 318.7 231.05C313.67 237.25 306.39 237.09 298.85 232.74C296.46 231.35 294.03 229.55 291.65 227.39C300.36 242.14 301.23 257.55 294.99 265.25C289.77 271.68 282.15 272.28 273.16 267.09C266.57 263.28 259.23 256.35 251.56 246.32L248.58 242.43L238.3 255.09L226.85 240.12L237.12 227.46L229.75 217.82L219.48 230.49L208.03 215.52L218.3 202.85L211.52 193.99L197.92 176.21L205.38 167.01L211.8 175.4C213.21 177.25 214.79 178.64 216.34 179.55C219.17 181.18 221.93 181.16 223.56 179.15L254.26 141.33C256.79 138.21 255.62 131.48 251.65 126.3L245.23 117.9L252.69 108.7L266.3 126.48L273.08 135.35L283.36 122.69L294.81 137.66L284.53 150.32L291.9 159.95L302.18 147.29L313.63 162.26L303.35 174.92L304.99 177.06ZM275.6 235.35C279.51 230.54 277.48 222.15 270.5 213.03L255.32 193.18L243.23 208.09L258.65 228.25C261.65 232.17 264.48 234.92 267.04 236.4C270.45 238.36 273.38 238.09 275.6 235.35ZM295.14 205.99C298.88 201.37 297.12 193.91 290.26 184.95L276.55 167.03L265.08 181.16L278.79 199.09C281.74 202.94 284.48 205.61 286.95 207.03C290.22 208.92 293 208.62 295.14 205.99Z" fill="#ED4944" fill-opacity="1.000000" fill-rule="nonzero"/>
        <path id="Vector" d="M384.93 323.38C364.86 364.27 320.56 376.18 268.4 349.75C265.61 348.34 262.79 346.8 259.95 345.17C247.82 338.16 236.06 329.55 224.87 319.66C192.2 290.77 164.41 251.04 146.4 208.91L254.11 237.95L309.66 283.73L324.03 307.76L384.93 323.38Z" fill="#FBC977" fill-opacity="1.000000" fill-rule="nonzero"/>
        </g>
    <path id="Vector" d="M101.96 315.88C101.27 315.32 100.58 314.76 99.91 314.19C98.71 313.17 97.56 312.14 96.44 311.1C95.88 310.59 95.31 310.08 94.78 309.57C93.31 308.16 91.92 306.73 90.58 305.3C90.44 305.14 90.28 305 90.14 304.84C88.69 303.25 87.32 301.64 86.03 300.01C85.63 299.5 85.26 298.99 84.88 298.48C84.01 297.34 83.16 296.2 82.37 295.05C81.95 294.43 81.56 293.82 81.16 293.2C80.46 292.12 79.8 291.04 79.17 289.96C78.97 289.6 78.73 289.26 78.53 288.92C78.31 288.51 78.12 288.11 77.91 287.71C77.63 287.2 77.37 286.69 77.11 286.18C76.62 285.21 76.17 284.23 75.73 283.25C75.53 282.8 75.31 282.34 75.12 281.88C74.56 280.55 74.04 279.21 73.58 277.87C73.55 277.77 73.51 277.68 73.47 277.58C72.99 276.14 72.57 274.7 72.19 273.25C72.07 272.81 71.98 272.36 71.87 271.91C71.63 270.9 71.41 269.88 71.23 268.86C71.13 268.34 71.05 267.82 70.97 267.3C70.81 266.33 70.69 265.35 70.59 264.38C70.53 263.87 70.48 263.36 70.44 262.85C70.35 261.76 70.31 260.67 70.28 259.57C70.28 259.2 70.25 258.83 70.25 258.45C70.25 258.36 70.24 258.27 70.24 258.18L70.18 280.7C70.12 301.87 81.7 323.07 104.88 340.8L104.88 318.18C103.89 317.42 102.91 316.66 101.96 315.88Z" fill="#DB8918" fill-opacity="1.000000" fill-rule="nonzero"/>
    <path id="Vector" d="M357.2 331.92C357.2 331.92 357.2 331.92 357.2 331.92C356.69 332.19 356.19 332.45 355.68 332.71C355.68 332.71 355.68 332.71 355.68 332.71C355.17 332.98 354.65 333.22 354.15 333.48C351.99 334.57 349.8 335.63 347.57 336.64C346.29 337.23 345.03 337.81 343.74 338.37C343.74 338.37 343.74 338.37 343.73 338.37C338.61 340.58 333.32 342.59 327.89 344.43C327.89 344.43 327.88 344.43 327.88 344.43C327.42 344.59 326.95 344.73 326.48 344.88C321.61 346.49 316.63 347.95 311.56 349.26C311.56 349.26 311.56 349.26 311.56 349.26C311.01 349.4 310.46 349.53 309.91 349.68C300.68 351.99 291.18 353.82 281.51 355.15C279.47 355.43 277.43 355.69 275.39 355.92C275.38 355.92 275.38 355.92 275.38 355.93C274.78 355.99 274.19 356.05 273.6 356.12C273.6 356.12 273.6 356.12 273.6 356.12C273.29 356.15 272.98 356.18 272.67 356.21C263.36 357.19 253.94 357.71 244.5 357.79C243.9 357.8 243.3 357.82 242.7 357.82C242.7 357.82 242.7 357.82 242.7 357.82C240.92 357.82 239.13 357.79 237.35 357.77C236.3 357.75 235.24 357.75 234.19 357.72C234.19 357.72 234.19 357.72 234.19 357.72C232.55 357.68 230.92 357.6 229.28 357.53C229.27 357.53 229.27 357.53 229.27 357.53C228.13 357.48 227 357.45 225.87 357.39C225.87 357.39 225.87 357.39 225.86 357.39C224.13 357.29 222.4 357.16 220.68 357.03C220.64 357.03 220.61 357.03 220.58 357.03C220.35 357.01 220.12 357 219.89 356.98L219.89 379.51C220.1 379.52 220.31 379.53 220.52 379.55C222.28 379.68 224.04 379.81 225.81 379.91C226.94 379.97 228.07 380 229.2 380.05C230.84 380.12 232.48 380.2 234.13 380.24C234.26 380.25 234.39 380.25 234.53 380.26C235.45 380.28 236.37 380.27 237.28 380.28C239.07 380.31 240.85 380.34 242.64 380.34C243.81 380.34 244.97 380.31 246.13 380.29C247.8 380.27 249.47 380.25 251.14 380.19C251.45 380.18 251.76 380.19 252.06 380.18C252.84 380.15 253.61 380.09 254.39 380.06C256.31 379.98 258.23 379.89 260.15 379.77C261.31 379.7 262.46 379.61 263.61 379.53C265.45 379.39 267.29 379.24 269.12 379.07C269.76 379.01 270.41 378.98 271.05 378.91C271.88 378.83 272.7 378.73 273.53 378.64C274.13 378.57 274.72 378.51 275.32 378.44C277.69 378.17 280.06 377.87 282.41 377.55C282.76 377.5 283.1 377.44 283.45 377.39C285.52 377.09 287.57 376.77 289.62 376.43C290.22 376.32 290.83 376.22 291.44 376.12C291.92 376.03 292.41 375.96 292.89 375.87C293.74 375.72 294.58 375.53 295.43 375.37C296.93 375.09 298.42 374.8 299.9 374.49C301.12 374.23 302.33 373.96 303.53 373.69C304.99 373.37 306.45 373.04 307.9 372.69C309.1 372.39 310.3 372.09 311.49 371.78C312.92 371.41 314.34 371.03 315.76 370.64C316.95 370.31 318.13 369.97 319.31 369.62C320.7 369.21 322.09 368.79 323.47 368.36C324.07 368.17 324.69 368 325.29 367.8C326.14 367.53 326.98 367.23 327.82 366.95C328.34 366.77 328.86 366.6 329.38 366.43C331.51 365.69 333.62 364.93 335.7 364.13C336.09 363.98 336.47 363.83 336.86 363.68C338.62 362.99 340.36 362.28 342.09 361.56C342.62 361.34 343.15 361.12 343.67 360.89C345.7 360.02 347.71 359.12 349.69 358.18C349.92 358.07 350.15 357.96 350.38 357.85C352.15 357 353.89 356.13 355.62 355.23C356.12 354.97 356.63 354.71 357.14 354.44C359.05 353.42 360.95 352.39 362.8 351.31C362.82 351.3 362.85 351.28 362.87 351.27L362.87 328.79C361.01 329.87 359.11 330.9 357.2 331.92Z" fill="#F9B142" fill-opacity="1.000000" fill-rule="nonzero"/>
    <path id="Vector" d="M218.27 356.87C215.91 356.68 213.56 356.45 211.21 356.21C211.2 356.2 211.19 356.2 211.17 356.2C210.56 356.14 209.94 356.09 209.33 356.02L209.33 356.02C206.48 355.7 203.65 355.34 200.83 354.93C200.5 354.88 200.18 354.83 199.85 354.78C199.83 354.78 199.8 354.77 199.77 354.77C197.47 354.43 195.16 354.08 192.88 353.68C192.88 353.68 192.88 353.68 192.88 353.68C191.91 353.52 190.95 353.32 189.98 353.14C189.98 353.14 189.98 353.14 189.97 353.14C185.33 352.28 180.73 351.33 176.2 350.24C176.2 350.24 176.2 350.24 176.2 350.24C175.65 350.1 175.1 349.96 174.54 349.82C169.59 348.6 164.72 347.23 159.94 345.72C158.36 345.23 156.79 344.73 155.24 344.21C155.24 344.21 155.24 344.21 155.24 344.21C154.83 344.07 154.42 343.92 154.02 343.78C154.02 343.78 154.01 343.78 154.01 343.78C152.22 343.16 150.45 342.52 148.69 341.85C148.69 341.85 148.69 341.85 148.68 341.85C147.33 341.34 146 340.8 144.66 340.27C144.02 340.01 143.38 339.76 142.74 339.5C142.74 339.5 142.74 339.5 142.73 339.5C139.54 338.18 136.39 336.81 133.33 335.35L133.33 335.35C132.62 335.02 131.93 334.66 131.24 334.32C127.66 332.57 124.16 330.74 120.78 328.79C118.46 327.45 116.23 326.07 114.07 324.68C113.37 324.23 112.71 323.76 112.03 323.31C110.59 322.34 109.17 321.37 107.8 320.38C107.06 319.84 106.33 319.29 105.61 318.75C105.36 318.56 105.13 318.37 104.89 318.18L104.89 340.8C109.67 344.46 114.94 347.98 120.72 351.32C122.74 352.48 124.8 353.6 126.89 354.7C127.58 355.06 128.29 355.4 128.98 355.75C130.4 356.47 131.82 357.19 133.26 357.88C134.12 358.28 134.99 358.67 135.86 359.06C137.18 359.66 138.5 360.27 139.84 360.84C140.78 361.25 141.73 361.63 142.68 362.02C143.59 362.39 144.49 362.79 145.41 363.15C145.88 363.34 146.36 363.51 146.84 363.69C147.43 363.93 148.03 364.15 148.62 364.37C150.38 365.03 152.16 365.68 153.95 366.3C154.36 366.44 154.77 366.59 155.18 366.73C157.34 367.46 159.52 368.16 161.72 368.84C162.27 369.01 162.81 369.16 163.36 369.33C164.31 369.61 165.24 369.9 166.19 370.17C166.72 370.32 167.25 370.44 167.77 370.59C169.49 371.07 171.22 371.52 172.96 371.96C174.02 372.23 175.07 372.5 176.14 372.76C178.04 373.22 179.97 373.64 181.89 374.06C182.61 374.21 183.32 374.4 184.05 374.55C184.24 374.59 184.44 374.62 184.64 374.66C186.39 375.02 188.15 375.34 189.92 375.66C190.88 375.84 191.84 376.04 192.81 376.2C195.13 376.6 197.46 376.96 199.79 377.3C200.2 377.37 200.61 377.44 201.02 377.5C201.04 377.5 201.06 377.5 201.09 377.51C203.8 377.89 206.53 378.24 209.27 378.54C209.88 378.61 210.51 378.66 211.12 378.73C213.25 378.95 215.37 379.17 217.51 379.34C217.56 379.35 217.61 379.35 217.67 379.36C218.41 379.42 219.15 379.46 219.89 379.51L219.89 356.98C219.35 356.94 218.81 356.91 218.27 356.87Z" fill="#F89D1F" fill-opacity="1.000000" fill-rule="nonzero"/>
    <path id="Vector" d="M362.87 328.8C361.01 329.87 359.11 330.91 357.2 331.92C356.7 332.19 356.19 332.46 355.68 332.72C355.18 332.98 354.66 333.23 354.14 333.48C352.92 334.1 351.69 334.73 350.44 335.33C350.21 335.44 349.98 335.55 349.75 335.67C349.03 336.01 348.29 336.32 347.56 336.65C346.29 337.23 345.03 337.82 343.73 338.37C343.21 338.6 342.68 338.82 342.15 339.04C340.43 339.77 338.68 340.48 336.92 341.16C336.53 341.31 336.15 341.47 335.77 341.61C333.68 342.41 331.57 343.17 329.44 343.91C328.93 344.09 328.41 344.26 327.89 344.43C327.42 344.59 326.95 344.73 326.48 344.88C325.5 345.21 324.52 345.53 323.53 345.84C322.15 346.28 320.76 346.7 319.37 347.11C318.19 347.46 317.01 347.8 315.82 348.13C314.41 348.52 312.99 348.89 311.56 349.26C311.01 349.4 310.46 349.54 309.91 349.68C309.26 349.85 308.61 350.01 307.96 350.17C306.52 350.52 305.06 350.85 303.6 351.18C302.39 351.45 301.18 351.72 299.97 351.97C298.48 352.28 296.99 352.57 295.49 352.85C294.17 353.1 292.84 353.36 291.5 353.6C290.9 353.71 290.29 353.81 289.68 353.91C287.63 354.25 285.58 354.58 283.51 354.87C283.17 354.93 282.82 354.98 282.47 355.03C282.15 355.07 281.83 355.11 281.51 355.15C279.47 355.43 277.43 355.69 275.38 355.93C274.79 356 274.19 356.06 273.6 356.12C273.29 356.15 272.98 356.18 272.67 356.21C271.51 356.33 270.35 356.45 269.19 356.55C267.35 356.72 265.52 356.87 263.68 357.01C262.53 357.1 261.37 357.18 260.21 357.25C258.29 357.37 256.37 357.46 254.45 357.54C253.37 357.59 252.28 357.64 251.2 357.68C249.53 357.73 247.87 357.75 246.19 357.77C245.63 357.78 245.07 357.79 244.5 357.8C243.9 357.8 243.3 357.82 242.7 357.82C240.92 357.82 239.13 357.8 237.35 357.77C236.3 357.75 235.24 357.75 234.19 357.73C232.55 357.68 230.92 357.6 229.28 357.53C228.14 357.48 227 357.45 225.86 357.39C224.13 357.3 222.4 357.16 220.68 357.04C219.87 356.98 219.07 356.93 218.28 356.87C218.04 356.85 217.8 356.84 217.57 356.82C215.45 356.65 213.33 356.43 211.21 356.21C210.59 356.14 209.96 356.09 209.33 356.02C206.59 355.71 203.87 355.37 201.15 354.99C201.04 354.97 200.93 354.95 200.83 354.94C200.47 354.89 200.13 354.82 199.77 354.77C197.46 354.43 195.16 354.08 192.88 353.69C191.91 353.52 190.95 353.32 189.97 353.14C188.21 352.82 186.45 352.5 184.7 352.14C183.78 351.95 182.87 351.74 181.95 351.54C180.03 351.12 178.11 350.69 176.2 350.24C175.65 350.1 175.1 349.96 174.55 349.82C174.04 349.69 173.53 349.57 173.03 349.44C171.29 349 169.56 348.54 167.84 348.07C166.36 347.66 164.88 347.24 163.42 346.81C162.88 346.64 162.33 346.49 161.79 346.32C161.17 346.13 160.56 345.92 159.94 345.72C158.37 345.23 156.79 344.74 155.24 344.21C154.83 344.07 154.42 343.92 154.02 343.78C152.22 343.16 150.45 342.52 148.68 341.85C148.09 341.63 147.49 341.4 146.9 341.17C146.14 340.88 145.4 340.58 144.66 340.27C144.02 340.02 143.37 339.76 142.74 339.5C141.79 339.11 140.84 338.73 139.9 338.32C138.56 337.75 137.24 337.14 135.92 336.54C135.05 336.15 134.18 335.76 133.33 335.35C132.62 335.02 131.94 334.66 131.24 334.32C130.51 333.96 129.77 333.6 129.05 333.23C128.35 332.88 127.64 332.54 126.95 332.18C124.86 331.09 122.8 329.96 120.78 328.8C118.46 327.45 116.23 326.07 114.07 324.68C113.37 324.23 112.72 323.76 112.03 323.31C110.59 322.34 109.17 321.37 107.8 320.38C107.06 319.84 106.33 319.29 105.61 318.75C104.36 317.8 103.14 316.85 101.96 315.89C101.27 315.33 100.58 314.76 99.91 314.19C98.71 313.17 97.56 312.14 96.44 311.1C95.89 310.59 95.31 310.09 94.78 309.57C93.31 308.16 91.92 306.74 90.58 305.3C90.44 305.15 90.28 305 90.15 304.85C88.69 303.25 87.32 301.64 86.03 300.01C85.63 299.51 85.26 299 84.88 298.49C84.01 297.35 83.16 296.21 82.37 295.05C81.95 294.44 81.56 293.82 81.16 293.21C80.46 292.13 79.8 291.05 79.17 289.96C78.74 289.21 78.31 288.46 77.91 287.71C77.64 287.2 77.37 286.69 77.12 286.18C76.62 285.21 76.17 284.23 75.73 283.26C75.53 282.8 75.31 282.34 75.12 281.88C74.56 280.55 74.05 279.21 73.59 277.87C73.55 277.78 73.51 277.68 73.48 277.59C72.99 276.15 72.56 274.7 72.19 273.26C72.07 272.81 71.98 272.37 71.87 271.92C71.64 270.91 71.41 269.89 71.22 268.87C71.13 268.35 71.05 267.82 70.97 267.3C70.81 266.33 70.69 265.36 70.59 264.39C70.53 263.87 70.48 263.36 70.44 262.86C70.35 261.76 70.31 260.67 70.29 259.58C70.28 259.2 70.25 258.84 70.25 258.46C70.2 233.15 86.77 207.87 119.98 188.56L125.57 205.26L129.78 205.21L155.28 204.93L163.03 204.84L163.03 227.39L200.06 227.39L215.81 251.66L254.97 258.04L270.29 284L305.62 284L320.09 310.82L325.46 311.04L348.26 311.98L351.16 312.1L362.87 328.8Z" fill="#FBC977" fill-opacity="1.000000" fill-rule="nonzero"/>
    <path id="Vector" d="M254.97 258.04L222.67 252.77C224.35 255.25 226.44 257.98 228.95 260.96C234.37 267.51 237.35 272.05 237.86 274.56C238.38 277.08 236.78 279.43 233.06 281.59C229.47 283.68 225.18 284.76 220.2 284.82C215.23 284.9 210.16 283.44 205 280.46C193.94 274.07 193.36 266.87 203.26 258.85L176.57 249.79C161.96 263.24 162.72 275.67 178.83 287.09L162.62 296.5L176.35 304.43L192.64 294.96C204.51 300.51 216.47 303.09 228.52 302.7C240.57 302.3 251.33 299.35 260.84 293.82C266.05 290.8 269.72 287.52 271.87 284L270.29 284L254.97 258.04Z" fill="#F89D1F" fill-opacity="1.000000" fill-rule="nonzero"/>
    <path id="Vector" d="M263.68 357.01C262.52 357.09 261.37 357.18 260.21 357.25C258.29 357.37 256.37 357.46 254.45 357.54C253.37 357.59 252.29 357.64 251.2 357.68C249.53 357.73 247.86 357.75 246.19 357.77C245.63 357.78 245.06 357.78 244.5 357.8C253.94 357.71 263.36 357.19 272.67 356.21C271.51 356.33 270.35 356.44 269.18 356.55C267.35 356.72 265.52 356.87 263.68 357.01Z" fill="#FFCB47" fill-opacity="1.000000" fill-rule="nonzero"/>
    <path id="Vector" d="M325.46 311.02C276.38 338.7 197.73 338.49 149.4 310.41C100.73 282.12 100.98 236.09 149.98 207.8C151.71 206.8 153.47 205.84 155.28 204.91L129.78 205.2C81.46 237.75 83.72 286.94 136.71 317.73C192.35 350.07 283.15 350.07 339.15 317.74C342.37 315.87 345.41 313.95 348.26 311.96L325.46 311.02Z" fill="#F89D1F" fill-opacity="1.000000" fill-rule="nonzero"/>
    </svg>
