<svg xmlns="http://www.w3.org/2000/svg" xmlns:xlink="http://www.w3.org/1999/xlink" width="24.000000" height="24.000000" viewBox="0 0 24 24" fill="none">
	<desc>
			Created with Pixso.
	</desc>
	<defs>
		<clipPath id="clip3191_3141">
			<rect id="Outline / Security / Eye" width="24.000000" height="24.000000" fill="white" fill-opacity="0"/>
		</clipPath>
	</defs>
	<g clip-path="url(#clip3191_3141)">
		<path id="Vector" d="M2.68 8.24C4.44 5.95 7.48 3.25 12 3.25C16.51 3.25 19.55 5.95 21.31 8.24L21.35 8.28C21.75 8.8 22.11 9.28 22.36 9.84C22.63 10.45 22.75 11.11 22.75 12C22.75 12.88 22.63 13.54 22.36 14.15C22.11 14.71 21.75 15.19 21.35 15.71L21.31 15.75C19.55 18.04 16.51 20.75 12 20.75C7.48 20.75 4.44 18.04 2.68 15.75L2.64 15.71C2.25 15.19 1.88 14.71 1.63 14.15C1.36 13.54 1.25 12.88 1.25 12C1.25 11.11 1.36 10.45 1.63 9.84C1.88 9.28 2.25 8.8 2.64 8.28L2.68 8.24ZM12 4.75C8.15 4.75 5.49 7.04 3.86 9.16C3.43 9.73 3.17 10.07 3 10.45C2.84 10.81 2.75 11.25 2.75 12C2.75 12.75 2.84 13.18 3 13.54C3.17 13.92 3.43 14.26 3.86 14.83C5.49 16.95 8.15 19.25 12 19.25C15.84 19.25 18.5 16.95 20.13 14.83C20.56 14.26 20.82 13.92 20.99 13.54C21.15 13.18 21.25 12.75 21.25 12C21.25 11.25 21.15 10.81 20.99 10.45C20.82 10.07 20.56 9.73 20.13 9.16C18.5 7.04 15.84 4.75 12 4.75ZM8.25 12C8.25 9.92 9.92 8.25 12 8.25C14.07 8.25 15.75 9.92 15.75 12C15.75 14.07 14.07 15.75 12 15.75C9.92 15.75 8.25 14.07 8.25 12ZM12 9.75C10.75 9.75 9.75 10.75 9.75 12C9.75 13.24 10.75 14.25 12 14.25C13.24 14.25 14.25 13.24 14.25 12C14.25 10.75 13.24 9.75 12 9.75Z" fill="#9AA0A6" fill-opacity="1.000000" fill-rule="evenodd"/>
	</g>
</svg>
