<svg xmlns="http://www.w3.org/2000/svg" xmlns:xlink="http://www.w3.org/1999/xlink" width="24.000000" height="24.000000" viewBox="0 0 24 24" fill="none">
	<desc>
			Created with Pixso.
	</desc>
	<defs>
		<clipPath id="clip3191_3111">
			<rect id="Google" width="24.000000" height="24.000000" fill="white" fill-opacity="0"/>
		</clipPath>
	</defs>
	<rect id="Google" width="24.000000" height="24.000000" fill="#FFFFFF" fill-opacity="0"/>
	<g clip-path="url(#clip3191_3111)">
		<path id="Vector" d="M24 12.28C24 11.47 23.91 10.64 23.78 9.85L12.24 9.85L12.24 14.47L18.85 14.47C18.58 15.96 17.7 17.26 16.4 18.1L20.34 21.1C22.66 18.98 24 15.91 24 12.28Z" fill="#4280EF" fill-opacity="1.000000" fill-rule="nonzero"/>
		<path id="Vector" d="M12.24 23.97C15.54 23.97 18.32 22.9 20.34 21.07L16.4 18.1C15.3 18.83 13.89 19.25 12.24 19.25C9.04 19.25 6.34 17.13 5.36 14.32L1.3 17.37C3.38 21.41 7.59 23.97 12.24 23.97Z" fill="#34A353" fill-opacity="1.000000" fill-rule="nonzero"/>
		<path id="Vector" d="M5.36 14.29C4.85 12.8 4.85 11.19 5.36 9.7L1.3 6.62C-0.43 10.01 -0.43 14 1.3 17.37L5.36 14.29Z" fill="#F6B704" fill-opacity="1.000000" fill-rule="nonzero"/>
		<path id="Vector" d="M12.24 4.77C13.97 4.75 15.67 5.4 16.93 6.57L20.42 3.13C18.21 1.09 15.28 0 12.24 0.02C7.59 0.02 3.38 2.58 1.3 6.62L5.36 9.7C6.34 6.86 9.04 4.77 12.24 4.77Z" fill="#E54335" fill-opacity="1.000000" fill-rule="nonzero"/>
	</g>
</svg>
