<svg xmlns="http://www.w3.org/2000/svg" xmlns:xlink="http://www.w3.org/1999/xlink" width="24.000000" height="24.000000" viewBox="0 0 24 24" fill="none">
	<desc>
			Created with Pixso.
	</desc>
	<defs>
		<clipPath id="clip3191_3143">
			<rect id="Outline / Security / Lock Password" width="24.000000" height="24.000000" fill="white" fill-opacity="0"/>
		</clipPath>
	</defs>
	<g clip-path="url(#clip3191_3143)">
		<path id="Vector" d="M5.25 9.3L5.25 8C5.25 4.27 8.27 1.25 12 1.25C15.72 1.25 18.75 4.27 18.75 8L18.75 9.3C18.97 9.32 19.19 9.33 19.39 9.36C20.29 9.48 21.04 9.74 21.65 10.34C22.25 10.94 22.51 11.7 22.63 12.6C22.75 13.47 22.75 14.57 22.75 15.94L22.75 16.05C22.75 17.42 22.75 18.52 22.63 19.39C22.51 20.29 22.25 21.05 21.65 21.65C21.04 22.25 20.29 22.51 19.39 22.63C18.52 22.75 17.42 22.75 16.05 22.75L7.94 22.75C6.57 22.75 5.47 22.75 4.6 22.63C3.7 22.51 2.95 22.25 2.34 21.65C1.74 21.05 1.48 20.29 1.36 19.39C1.25 18.52 1.25 17.42 1.25 16.05L1.25 15.94C1.25 14.57 1.25 13.47 1.36 12.6C1.48 11.7 1.74 10.94 2.34 10.34C2.95 9.74 3.7 9.48 4.6 9.36C4.8 9.33 5.02 9.32 5.25 9.3ZM6.75 8C6.75 5.1 9.1 2.75 12 2.75C14.89 2.75 17.25 5.1 17.25 8L17.25 9.25C16.87 9.25 16.47 9.25 16.05 9.25L7.94 9.25C7.52 9.25 7.12 9.25 6.75 9.25L6.75 8ZM3.4 11.41C3.68 11.13 4.07 10.95 4.8 10.85C5.56 10.75 6.56 10.75 8 10.75L16 10.75C17.43 10.75 18.43 10.75 19.19 10.85C19.92 10.95 20.31 11.13 20.59 11.41C20.86 11.68 21.04 12.07 21.14 12.8C21.24 13.56 21.25 14.56 21.25 16C21.25 17.43 21.24 18.43 21.14 19.19C21.04 19.92 20.86 20.31 20.59 20.58C20.31 20.86 19.92 21.04 19.19 21.14C18.43 21.25 17.43 21.25 16 21.25L8 21.25C6.56 21.25 5.56 21.25 4.8 21.14C4.07 21.04 3.68 20.86 3.4 20.58C3.13 20.31 2.95 19.92 2.85 19.19C2.75 18.43 2.75 17.43 2.75 16C2.75 14.56 2.75 13.56 2.85 12.8C2.95 12.07 3.13 11.68 3.4 11.41ZM8 17C8.55 17 9 16.55 9 16C9 15.44 8.55 15 8 15C7.44 15 7 15.44 7 16C7 16.55 7.44 17 8 17ZM12 17C12.55 17 13 16.55 13 16C13 15.44 12.55 15 12 15C11.44 15 11 15.44 11 16C11 16.55 11.44 17 12 17ZM16 17C16.55 17 17 16.55 17 16C17 15.44 16.55 15 16 15C15.44 15 15 15.44 15 16C15 16.55 15.44 17 16 17Z" fill="#9AA0A6" fill-opacity="1.000000" fill-rule="evenodd"/>
	</g>
</svg>
