<svg xmlns="http://www.w3.org/2000/svg" xmlns:xlink="http://www.w3.org/1999/xlink" width="135.685547" height="46.558594" viewBox="0 0 135.686 46.5586" fill="none">
	<desc>
			Created with Pixso.
	</desc>
	<defs/>
	<path id="PopTrade" d="M58.07 24.22L52.09 24.22L52.09 21.28L67.53 21.28L67.53 24.22L61.54 24.22L61.54 40.63L58.07 40.63L58.07 24.22ZM103.94 38.35C103.4 39.4 102.28 40.89 99.78 40.89C96.36 40.89 93.8 38.18 93.8 33.4C93.8 28.56 96.44 25.93 99.79 25.93C102.35 25.93 103.42 27.47 103.94 28.52L104.08 28.52L104.08 21.28L107.51 21.28L107.51 40.63L104.15 40.63L104.15 38.35L103.94 38.35ZM72.25 40.63L68.83 40.63L68.83 26.12L72.14 26.12L72.14 28.54L72.29 28.54C72.83 26.85 74.22 25.91 75.88 25.91C76.26 25.91 76.79 25.95 77.11 26L77.11 29.15C76.81 29.06 76.09 28.95 75.51 28.95C73.64 28.95 72.25 30.26 72.25 32.1L72.25 40.63ZM87.54 38.64C86.92 39.86 85.56 40.92 83.28 40.92C80.51 40.92 78.43 39.41 78.43 36.56C78.43 33.29 81.12 32.45 83.94 32.15C86.5 31.88 87.53 31.82 87.53 30.84L87.53 30.78C87.53 29.36 86.66 28.55 85.07 28.55C83.4 28.55 82.44 29.4 82.09 30.39L78.9 29.93C79.66 27.29 82 25.93 85.05 25.93C87.82 25.93 90.95 27.08 90.95 30.92L90.95 40.63L87.66 40.63L87.66 38.64L87.54 38.64ZM123.9 36.74C123.29 39.26 120.97 40.92 117.59 40.92C113.21 40.92 110.54 38.01 110.54 33.46C110.54 28.99 113.25 25.93 117.41 25.93C120.98 25.93 124.04 28.17 124.04 33.26L124.04 34.31L113.93 34.31C113.96 36.79 115.43 38.25 117.64 38.25C119.11 38.25 120.24 37.61 120.71 36.38L123.9 36.74ZM117.46 28.6C115.42 28.6 114.05 30.15 113.94 32.01L120.76 32.01C120.74 30.03 119.42 28.6 117.46 28.6ZM97.29 33.38C97.29 36.1 98.48 38.08 100.74 38.08C102.92 38.08 104.15 36.19 104.15 33.38C104.15 30.56 102.93 28.74 100.74 28.74C98.46 28.74 97.29 30.67 97.29 33.38ZM81.72 36.5C81.72 37.76 82.75 38.41 84.17 38.41C86.23 38.41 87.54 37.04 87.54 35.43L87.54 33.71C87.09 34.08 85.29 34.3 84.4 34.42C82.86 34.64 81.72 35.19 81.72 36.5Z" fill="#010409" fill-opacity="1.000000" fill-rule="evenodd"/>
	<path id="PopTrade" d="M6.73 40.63L3.23 40.63L3.23 21.28L10.49 21.28C14.94 21.28 17.31 24 17.31 27.69C17.31 31.41 14.91 34.09 10.44 34.09L6.73 34.09L6.73 40.63ZM6.73 24.21L6.73 31.21L9.97 31.21C12.57 31.21 13.74 29.75 13.74 27.69C13.74 25.63 12.57 24.21 9.95 24.21L6.73 24.21ZM33.28 33.43C33.28 37.92 30.58 40.92 26.32 40.92C22.07 40.92 19.37 37.92 19.37 33.43C19.37 28.93 22.07 25.93 26.32 25.93C30.58 25.93 33.28 28.93 33.28 33.43ZM39.59 46.07L36.17 46.07L36.17 26.12L39.53 26.12L39.53 28.52L39.73 28.52C40.25 27.47 41.31 25.93 43.87 25.93C47.23 25.93 49.87 28.56 49.87 33.4C49.87 38.18 47.3 40.89 43.89 40.89C41.39 40.89 40.27 39.4 39.73 38.35L39.59 38.35L39.59 46.07ZM22.83 33.42C22.83 36.08 23.99 38.18 26.34 38.18C28.65 38.18 29.81 36.08 29.81 33.42C29.81 30.77 28.65 28.64 26.34 28.64C23.99 28.64 22.83 30.77 22.83 33.42ZM42.93 28.74C40.73 28.74 39.52 30.56 39.52 33.38C39.52 36.19 40.75 38.08 42.93 38.08C45.19 38.08 46.38 36.1 46.38 33.38C46.38 30.67 45.21 28.74 42.93 28.74Z" fill="#003DF6" fill-opacity="1.000000" fill-rule="evenodd"/>
	<path id="•" d="M128.98 22.44C131.28 22.44 133.14 20.58 133.14 18.28C133.14 15.99 131.28 14.13 128.98 14.13C126.68 14.13 124.83 15.99 124.83 18.28C124.83 20.58 126.68 22.44 128.98 22.44Z" fill="#003DF6" fill-opacity="1.000000" fill-rule="evenodd"/>
</svg>
